# xmcd
#
# Track frame offsets:
# 150
# 10808
# 21466
# 30870
# 42939
# 54381
# 68958
# 81967
# 91058
# 101560
# 112532
# 121936
# 134162
# 146074
# 160180
#
# Disc length: 2298 seconds
#
#
# Revision: 0
# Processed by: cddbd v1.5.1PL0 Copyright (c) Steve Scherf et al.
# Submitted via: FreeRIP 2.80 
#
DISCID=bd08f80f
DTITLE=Chris "Sugarballs" Sprague - The Sweet Sounds of Sugar Balls
DYEAR=2004
DGENRE=Western Swing
TTITLE0=Right or Wrong
TTITLE1=Hardship
TTITLE2=Right-Time for Love
TTITLE3=She's Gonna Love
TTITLE4=Back to You
TTITLE5=Money Makes The Man
TTITLE6=Lucy
TTITLE7=In My Head
TTITLE8=Waiting for You
TTITLE9=Masterplan
TTITLE10=I Don't Care
TTITLE11='Cause She's Mine
TTITLE12=All Night Long
TTITLE13=Angelyne
TTITLE14=Mopar Junk
EXTD=
EXTT0=
EXTT1=
EXTT2=
EXTT3=
EXTT4=
EXTT5=
EXTT6=
EXTT7=
EXTT8=
EXTT9=
EXTT10=
EXTT11=
EXTT12=
EXTT13=
EXTT14=
PLAYORDER=
